# xmcd
#
# Track frame offsets:
#	150
#	11961
#	26468
#	39763
#	50300
#	64378
#	81351
#	89444
#	103852
#	131220
#	144436
#
# Disc length: 2164 seconds
#
# Revision: 0
# Processed by: cddbd v1.5.2PL0 Copyright (c) Steve Scherf et al.
# Submitted via: dBpowerAMP V4.0
#
DISCID=9508720b
DTITLE=Love Olzon - Fri från dig
DYEAR=2009
DGENRE=Pop
TTITLE0=Kommer hem
TTITLE1=Alla själars aveny
TTITLE2=Söker en ängel
TTITLE3=Cary Grant
TTITLE4=Jag and Jag
TTITLE5=Jag fick en känsla
TTITLE6=Monoton
TTITLE7=Kom ut and lek
TTITLE8=Elda inomhus
TTITLE9=Hundra andetag
TTITLE10=Fri från dig
EXTD=
EXTT0=
EXTT1=
EXTT2=
EXTT3=
EXTT4=
EXTT5=
EXTT6=
EXTT7=
EXTT8=
EXTT9=
EXTT10=
PLAYORDER=
